<svg xmlns="http://www.w3.org/2000/svg" viewBox="0 0 48 48">
  <defs>
    <style>
      .a {
        fill: none;
        stroke: #000;
        stroke-linecap: round;
        stroke-linejoin: round;
        stroke-width: 2px;
      }
    </style>
  </defs>
  <title>icn_7</title>
  <path class="a" d="M36,18h.5193A2.4806,2.4806,0,0,1,39,20.4807V35.5193A2.4806,2.4806,0,0,1,36.5193,38H9.4807A2.4806,2.4806,0,0,1,7,35.5193V20.4807A2.4806,2.4806,0,0,1,9.4807,18H13"/>
  <path class="a" d="M13.2868,22.5,27.7868,8a5.4661,5.4661,0,0,1,2.9863,1.1265A5.6472,5.6472,0,0,1,32,12.2132l-14.5,14.5-5.0645.8946Z"/>
  <line class="a" x1="25" y1="28" x2="34" y2="28"/>
  <line class="a" x1="21" y1="33" x2="34" y2="33"/>
  <line class="a" x1="23.2868" y1="12.5" x2="27.5" y2="16.7132"/>
  <path class="a" d="M31.0993,13.1139l1.2815,1.2815a1.4328,1.4328,0,0,1,.1822,2.2092L27.6676,21.5"/>
</svg>
